<?xml version="1.0" encoding="UTF-8" standalone="no"?>
<!-- Created with Inkscape (http://www.inkscape.org/) -->

<svg
   xmlns:dc="http://purl.org/dc/elements/1.1/"
   xmlns:cc="http://creativecommons.org/ns#"
   xmlns:rdf="http://www.w3.org/1999/02/22-rdf-syntax-ns#"
   xmlns:svg="http://www.w3.org/2000/svg"
   xmlns="http://www.w3.org/2000/svg"
   xmlns:sodipodi="http://sodipodi.sourceforge.net/DTD/sodipodi-0.dtd"
   xmlns:inkscape="http://www.inkscape.org/namespaces/inkscape"
   width="780"
   height="440"
   id="svg2"
   version="1.1"
   inkscape:version="0.48+devel r"
   viewBox="0 0 780 440.00001"
   sodipodi:docname="gossip girl.svg">
  <defs
     id="defs4">
    <filter
       inkscape:collect="always"
       style="color-interpolation-filters:sRGB"
       id="filter4226"
       x="-0.025314286"
       width="1.0506286"
       y="-0.062296875"
       height="1.1245938">
      <feGaussianBlur
         inkscape:collect="always"
         stdDeviation="2.8282781"
         id="feGaussianBlur4228" />
    </filter>
  </defs>
  <sodipodi:namedview
     id="base"
     pagecolor="#ffffff"
     bordercolor="#666666"
     borderopacity="1.0"
     inkscape:pageopacity="0.0"
     inkscape:pageshadow="2"
     inkscape:zoom="0.7"
     inkscape:cx="441.98418"
     inkscape:cy="481.82766"
     inkscape:document-units="px"
     inkscape:current-layer="layer1"
     showgrid="false"
     fit-margin-top="0"
     fit-margin-left="0"
     fit-margin-right="0"
     fit-margin-bottom="0"
     inkscape:snap-text-baseline="true"
     inkscape:object-nodes="true"
     inkscape:snap-page="true"
     inkscape:window-width="1920"
     inkscape:window-height="1176"
     inkscape:window-x="0"
     inkscape:window-y="24"
     inkscape:window-maximized="1">
    <inkscape:grid
       type="xygrid"
       id="grid4186" />
  </sodipodi:namedview>
  <metadata
     id="metadata7">
    <rdf:RDF>
      <cc:Work
         rdf:about="">
        <dc:format>image/svg+xml</dc:format>
        <dc:type
           rdf:resource="http://purl.org/dc/dcmitype/StillImage" />
        <dc:title></dc:title>
      </cc:Work>
    </rdf:RDF>
  </metadata>
  <g
     inkscape:label="Layer 1"
     inkscape:groupmode="layer"
     id="layer1"
     transform="translate(4.2857073,-418.07648)">
    <rect
       style="fill:#000000;fill-opacity:1;stroke:none"
       id="rect4230"
       width="780"
       height="440"
       x="-4.2857161"
       y="418.07648" />
    <g
       transform="translate(0.23170304,0.52524445)"
       id="g4188"
       style="font-size:60px;font-style:normal;font-variant:normal;font-weight:200;font-stretch:normal;text-align:center;line-height:125%;letter-spacing:-0.5px;word-spacing:0px;writing-mode:lr-tb;text-anchor:middle;fill:#ffe800;fill-opacity:0.78756475;stroke:none;font-family:Helvetica Neue LT Com;-inkscape-font-specification:Helvetica Neue LT Com Ultra-Light;filter:url(#filter4226)">
      <path
         inkscape:connector-curvature="0"
         id="path4190"
         d="m 281.21071,613.55124 2.76,0 0,29.22 q 0,2.64 -0.66,5.22 -0.6,2.64 -2.4,4.74 -1.8,2.1 -5.1,3.42 -3.3,1.32 -8.64,1.32 -7.26,0 -11.22,-2.34 -3.9,-2.34 -4.68,-7.98 l 2.76,0 q 0.24,1.8 1.02,3.24 0.84,1.5 2.4,2.52 1.56,1.08 3.96,1.62 2.4,0.54 5.76,0.54 4.5,0 7.2,-1.14 2.76,-1.08 4.26,-2.82 1.56,-1.74 2.04,-3.9 0.54,-2.16 0.54,-4.32 l 0,-6.36 -0.12,0 q -2.04,3.84 -5.82,5.64 -3.72,1.74 -8.58,1.74 -4.5,0 -7.68,-1.32 -3.12,-1.32 -5.16,-3.48 -1.98,-2.22 -2.94,-5.1 -0.9,-2.88 -0.9,-5.94 0,-3 0.96,-5.76 0.96,-2.82 3,-4.98 2.04,-2.16 5.16,-3.42 3.18,-1.32 7.62,-1.32 2.04,0 4.14,0.36 2.1,0.3 3.96,1.14 1.92,0.78 3.54,2.16 1.62,1.38 2.7,3.48 l 0.12,0.06 0,-6.24 z m -14.46,1.44 q -2.7,0 -5.28,0.78 -2.52,0.78 -4.44,2.4 -1.92,1.56 -3.12,4.02 -1.14,2.46 -1.14,5.76 0,6.66 3.66,10.14 3.72,3.42 10.62,3.42 3,0 5.58,-0.78 2.58,-0.84 4.5,-2.52 1.92,-1.68 3,-4.2 1.08,-2.58 1.08,-6.12 0,-6.18 -3.84,-9.54 -3.78,-3.36 -10.62,-3.36 z"
         style="fill:#ffe800;fill-opacity:0.78756475" />
      <path
         inkscape:connector-curvature="0"
         id="path4192"
         d="m 288.41696,628.91124 q 0,-3.24 1.14,-6.18 1.2,-2.94 3.42,-5.16 2.22,-2.28 5.4,-3.6 3.24,-1.38 7.38,-1.38 4.14,0 7.32,1.38 3.24,1.32 5.46,3.6 2.22,2.22 3.36,5.16 1.2,2.94 1.2,6.18 0,3.24 -1.2,6.24 -1.14,2.94 -3.36,5.22 -2.22,2.22 -5.46,3.54 -3.18,1.32 -7.32,1.32 -4.14,0 -7.38,-1.32 -3.18,-1.32 -5.4,-3.54 -2.22,-2.28 -3.42,-5.22 -1.14,-3 -1.14,-6.24 z m 2.76,0 q 0,2.64 0.9,5.16 0.9,2.46 2.7,4.44 1.86,1.92 4.56,3.12 2.76,1.2 6.42,1.2 3.66,0 6.36,-1.2 2.76,-1.2 4.56,-3.12 1.86,-1.98 2.76,-4.44 0.9,-2.52 0.9,-5.16 0,-2.58 -0.9,-5.1 -0.9,-2.52 -2.76,-4.44 -1.8,-1.98 -4.56,-3.18 -2.7,-1.2 -6.36,-1.2 -3.66,0 -6.42,1.2 -2.7,1.2 -4.56,3.18 -1.8,1.92 -2.7,4.44 -0.9,2.52 -0.9,5.1 z"
         style="fill:#ffe800;fill-opacity:0.78756475" />
      <path
         inkscape:connector-curvature="0"
         id="path4194"
         d="m 351.20853,622.55124 q -0.3,-3.84 -3,-5.7 -2.64,-1.86 -8.64,-1.86 -2.82,0 -4.74,0.54 -1.92,0.48 -3.12,1.32 -1.14,0.84 -1.68,1.98 -0.48,1.08 -0.48,2.28 0,2.52 1.68,3.72 1.74,1.14 4.5,1.5 l 9.78,1.32 q 2.16,0.3 3.9,0.9 1.8,0.54 3.06,1.56 1.32,0.96 1.98,2.46 0.72,1.44 0.72,3.48 0,3.12 -1.56,4.98 -1.56,1.8 -3.84,2.76 -2.28,0.9 -4.8,1.14 -2.52,0.3 -4.5,0.3 -3.18,0 -5.88,-0.6 -2.64,-0.54 -4.62,-1.8 -1.98,-1.26 -3.18,-3.24 -1.14,-2.04 -1.32,-4.92 l 2.76,0 q 0.12,1.2 0.48,2.64 0.36,1.38 1.62,2.64 1.32,1.2 3.84,2.04 2.52,0.84 7.02,0.84 6.06,0 8.64,-1.74 2.58,-1.74 2.58,-5.04 0,-2.7 -1.74,-3.96 -1.74,-1.26 -4.44,-1.62 l -10.8,-1.44 q -1.44,-0.18 -3,-0.6 -1.5,-0.48 -2.76,-1.38 -1.26,-0.9 -2.1,-2.28 -0.78,-1.38 -0.78,-3.48 0,-1.32 0.54,-2.82 0.54,-1.5 1.98,-2.82 1.44,-1.32 3.96,-2.16 2.52,-0.9 6.42,-0.9 4.26,0 6.96,0.9 2.76,0.84 4.32,2.28 1.56,1.44 2.22,3.24 0.66,1.74 0.78,3.54 l -2.76,0 z"
         style="fill:#ffe800;fill-opacity:0.78756475" />
      <path
         inkscape:connector-curvature="0"
         id="path4196"
         d="m 382.93509,622.55124 q -0.3,-3.84 -3,-5.7 -2.64,-1.86 -8.64,-1.86 -2.82,0 -4.74,0.54 -1.92,0.48 -3.12,1.32 -1.14,0.84 -1.68,1.98 -0.48,1.08 -0.48,2.28 0,2.52 1.68,3.72 1.74,1.14 4.5,1.5 l 9.78,1.32 q 2.16,0.3 3.9,0.9 1.8,0.54 3.06,1.56 1.32,0.96 1.98,2.46 0.72,1.44 0.72,3.48 0,3.12 -1.56,4.98 -1.56,1.8 -3.84,2.76 -2.28,0.9 -4.8,1.14 -2.52,0.3 -4.5,0.3 -3.18,0 -5.88,-0.6 -2.64,-0.54 -4.62,-1.8 -1.98,-1.26 -3.18,-3.24 -1.14,-2.04 -1.32,-4.92 l 2.76,0 q 0.12,1.2 0.48,2.64 0.36,1.38 1.62,2.64 1.32,1.2 3.84,2.04 2.52,0.84 7.02,0.84 6.06,0 8.64,-1.74 2.58,-1.74 2.58,-5.04 0,-2.7 -1.74,-3.96 -1.74,-1.26 -4.44,-1.62 l -10.8,-1.44 q -1.44,-0.18 -3,-0.6 -1.5,-0.48 -2.76,-1.38 -1.26,-0.9 -2.1,-2.28 -0.78,-1.38 -0.78,-3.48 0,-1.32 0.54,-2.82 0.54,-1.5 1.98,-2.82 1.44,-1.32 3.96,-2.16 2.52,-0.9 6.42,-0.9 4.26,0 6.96,0.9 2.76,0.84 4.32,2.28 1.56,1.44 2.22,3.24 0.66,1.74 0.78,3.54 l -2.76,0 z"
         style="fill:#ffe800;fill-opacity:0.78756475" />
      <path
         inkscape:connector-curvature="0"
         id="path4198"
         d="m 391.26165,601.43124 2.76,0 0,6.36 -2.76,0 0,-6.36 z m 0,12.12 2.76,0 0,30.72 -2.76,0 0,-30.72 z"
         style="fill:#ffe800;fill-opacity:0.78756475" />
      <path
         sodipodi:nodetypes="scscssscsccsscccsccccsscscccscccsccsccccc"
         inkscape:connector-curvature="0"
         id="path4200"
         d="m 417.28259,614.99124 c -2.88,0 -5.26,0.46 -7.14,1.38 -1.84,0.88 -3.3,2 -4.38,3.36 -1.08,1.36 -1.84,2.84 -2.28,4.44 -0.4,1.6 -0.6,3.08 -0.6,4.44 0,2.72 0.44,4.98 1.32,6.78 0.88,1.8 2,3.26 3.36,4.38 1.36,1.12 2.86,1.92 4.5,2.4 1.68,0.44 3.3,0.66 4.86,0.66 1.76,0 3.46,-0.28 5.1,-0.84 1.68,-0.56 3.14,-1.4 4.38,-2.52 1.28,-1.16 2.3,-2.6 3.06,-4.32 0.76,-1.72 1.14,-3.76 1.14,-6.12 0,-2.2 -0.34,-4.16 -1.02,-5.88 -0.68,-1.76 -1.62,-3.24 -2.82,-4.44 -1.16,-1.2 -2.56,-2.12 -4.2,-2.76 -1.6,-0.64 -3.36,-0.96 -5.28,-0.96 z m -16.8,-1.44 2.76,0 0,6.72 0.12,0 c 0.36,-0.92 0.9,-1.84 1.62,-2.76 0.72,-0.92 1.64,-1.74 2.76,-2.46 1.12,-0.72 2.44,-1.3 3.96,-1.74 1.52,-0.48 3.28,-0.72 5.28,-0.72 2.68,0 5.04,0.46 7.08,1.38 2.08,0.88 3.8,2.08 5.16,3.6 1.36,1.48 2.38,3.22 3.06,5.22 0.72,1.96 1.08,4.02 1.08,6.18 0,2.44 -0.42,4.66 -1.26,6.66 -0.8,2 -1.94,3.72 -3.42,5.16 -1.48,1.4 -3.22,2.5 -5.22,3.3 -2,0.76 -4.16,1.14 -6.48,1.14 -1.88,0 -3.58,-0.24 -5.1,-0.72 -1.48,-0.44 -2.78,-1.02 -3.9,-1.74 -1.12,-0.76 -2.06,-1.58 -2.82,-2.46 -0.76,-0.88 -1.36,-1.74 -1.8,-2.58 l -0.12,0 0,72.66 -2.76,0 z"
         style="fill:#ffe800;fill-opacity:0.78756475" />
      <path
         inkscape:connector-curvature="0"
         id="path4202"
         d="m 476.09353,613.55124 2.76,0 0,29.22 q 0,2.64 -0.66,5.22 -0.6,2.64 -2.4,4.74 -1.8,2.1 -5.1,3.42 -3.3,1.32 -8.64,1.32 -7.26,0 -11.22,-2.34 -3.9,-2.34 -4.68,-7.98 l 2.76,0 q 0.24,1.8 1.02,3.24 0.84,1.5 2.4,2.52 1.56,1.08 3.96,1.62 2.4,0.54 5.76,0.54 4.5,0 7.2,-1.14 2.76,-1.08 4.26,-2.82 1.56,-1.74 2.04,-3.9 0.54,-2.16 0.54,-4.32 l 0,-6.36 -0.12,0 q -2.04,3.84 -5.82,5.64 -3.72,1.74 -8.58,1.74 -4.5,0 -7.68,-1.32 -3.12,-1.32 -5.16,-3.48 -1.98,-2.22 -2.94,-5.1 -0.9,-2.88 -0.9,-5.94 0,-3 0.96,-5.76 0.96,-2.82 3,-4.98 2.04,-2.16 5.16,-3.42 3.18,-1.32 7.62,-1.32 2.04,0 4.14,0.36 2.1,0.3 3.96,1.14 1.92,0.78 3.54,2.16 1.62,1.38 2.7,3.48 l 0.12,0.06 0,-6.24 z m -14.46,1.44 q -2.7,0 -5.28,0.78 -2.52,0.78 -4.44,2.4 -1.92,1.56 -3.12,4.02 -1.14,2.46 -1.14,5.76 0,6.66 3.66,10.14 3.72,3.42 10.62,3.42 3,0 5.58,-0.78 2.58,-0.84 4.5,-2.52 1.92,-1.68 3,-4.2 1.08,-2.58 1.08,-6.12 0,-6.18 -3.84,-9.54 -3.78,-3.36 -10.62,-3.36 z"
         style="fill:#ffe800;fill-opacity:0.78756475" />
      <path
         inkscape:connector-curvature="0"
         id="path4204"
         d="m 485.33978,601.43124 2.76,0 0,6.36 -2.76,0 0,-6.36 z m 0,12.12 2.76,0 0,30.72 -2.76,0 0,-30.72 z"
         style="fill:#ffe800;fill-opacity:0.78756475" />
      <path
         inkscape:connector-curvature="0"
         id="path4206"
         d="m 494.56071,613.55124 2.76,0 0,7.26 0.12,0 q 1.56,-4.14 4.86,-6.18 3.36,-2.04 7.86,-2.04 0.66,0 1.14,0.12 0.48,0.06 1.14,0.24 l 0,2.76 q -0.48,-0.18 -1.2,-0.24 -0.66,-0.12 -1.98,-0.12 -3,0 -5.28,1.08 -2.22,1.02 -3.72,2.76 -1.44,1.68 -2.22,3.9 -0.72,2.22 -0.72,4.56 l 0,16.62 -2.76,0 0,-30.72 z"
         style="fill:#ffe800;fill-opacity:0.78756475" />
      <path
         inkscape:connector-curvature="0"
         id="path4208"
         d="m 515.39446,601.43124 2.76,0 0,42.84 -2.76,0 0,-42.84 z"
         style="fill:#ffe800;fill-opacity:0.78756475" />
    </g>
    <g
       style="font-size:60px;font-style:normal;font-variant:normal;font-weight:200;font-stretch:normal;text-align:center;line-height:125%;letter-spacing:-0.5px;word-spacing:0px;writing-mode:lr-tb;text-anchor:middle;fill:#fff8b5;fill-opacity:1;stroke:none;font-family:Helvetica Neue LT Com;-inkscape-font-specification:Helvetica Neue LT Com Ultra-Light"
       id="text4073"
       transform="translate(0.23170304,0.52524445)">
      <path
         d="m 281.21071,613.55124 2.76,0 0,29.22 q 0,2.64 -0.66,5.22 -0.6,2.64 -2.4,4.74 -1.8,2.1 -5.1,3.42 -3.3,1.32 -8.64,1.32 -7.26,0 -11.22,-2.34 -3.9,-2.34 -4.68,-7.98 l 2.76,0 q 0.24,1.8 1.02,3.24 0.84,1.5 2.4,2.52 1.56,1.08 3.96,1.62 2.4,0.54 5.76,0.54 4.5,0 7.2,-1.14 2.76,-1.08 4.26,-2.82 1.56,-1.74 2.04,-3.9 0.54,-2.16 0.54,-4.32 l 0,-6.36 -0.12,0 q -2.04,3.84 -5.82,5.64 -3.72,1.74 -8.58,1.74 -4.5,0 -7.68,-1.32 -3.12,-1.32 -5.16,-3.48 -1.98,-2.22 -2.94,-5.1 -0.9,-2.88 -0.9,-5.94 0,-3 0.96,-5.76 0.96,-2.82 3,-4.98 2.04,-2.16 5.16,-3.42 3.18,-1.32 7.62,-1.32 2.04,0 4.14,0.36 2.1,0.3 3.96,1.14 1.92,0.78 3.54,2.16 1.62,1.38 2.7,3.48 l 0.12,0.06 0,-6.24 z m -14.46,1.44 q -2.7,0 -5.28,0.78 -2.52,0.78 -4.44,2.4 -1.92,1.56 -3.12,4.02 -1.14,2.46 -1.14,5.76 0,6.66 3.66,10.14 3.72,3.42 10.62,3.42 3,0 5.58,-0.78 2.58,-0.84 4.5,-2.52 1.92,-1.68 3,-4.2 1.08,-2.58 1.08,-6.12 0,-6.18 -3.84,-9.54 -3.78,-3.36 -10.62,-3.36 z"
         id="path4166"
         inkscape:connector-curvature="0"
         style="fill:#fff8b5;fill-opacity:1" />
      <path
         d="m 288.41696,628.91124 q 0,-3.24 1.14,-6.18 1.2,-2.94 3.42,-5.16 2.22,-2.28 5.4,-3.6 3.24,-1.38 7.38,-1.38 4.14,0 7.32,1.38 3.24,1.32 5.46,3.6 2.22,2.22 3.36,5.16 1.2,2.94 1.2,6.18 0,3.24 -1.2,6.24 -1.14,2.94 -3.36,5.22 -2.22,2.22 -5.46,3.54 -3.18,1.32 -7.32,1.32 -4.14,0 -7.38,-1.32 -3.18,-1.32 -5.4,-3.54 -2.22,-2.28 -3.42,-5.22 -1.14,-3 -1.14,-6.24 z m 2.76,0 q 0,2.64 0.9,5.16 0.9,2.46 2.7,4.44 1.86,1.92 4.56,3.12 2.76,1.2 6.42,1.2 3.66,0 6.36,-1.2 2.76,-1.2 4.56,-3.12 1.86,-1.98 2.76,-4.44 0.9,-2.52 0.9,-5.16 0,-2.58 -0.9,-5.1 -0.9,-2.52 -2.76,-4.44 -1.8,-1.98 -4.56,-3.18 -2.7,-1.2 -6.36,-1.2 -3.66,0 -6.42,1.2 -2.7,1.2 -4.56,3.18 -1.8,1.92 -2.7,4.44 -0.9,2.52 -0.9,5.1 z"
         id="path4168"
         inkscape:connector-curvature="0"
         style="fill:#fff8b5;fill-opacity:1" />
      <path
         d="m 351.20853,622.55124 q -0.3,-3.84 -3,-5.7 -2.64,-1.86 -8.64,-1.86 -2.82,0 -4.74,0.54 -1.92,0.48 -3.12,1.32 -1.14,0.84 -1.68,1.98 -0.48,1.08 -0.48,2.28 0,2.52 1.68,3.72 1.74,1.14 4.5,1.5 l 9.78,1.32 q 2.16,0.3 3.9,0.9 1.8,0.54 3.06,1.56 1.32,0.96 1.98,2.46 0.72,1.44 0.72,3.48 0,3.12 -1.56,4.98 -1.56,1.8 -3.84,2.76 -2.28,0.9 -4.8,1.14 -2.52,0.3 -4.5,0.3 -3.18,0 -5.88,-0.6 -2.64,-0.54 -4.62,-1.8 -1.98,-1.26 -3.18,-3.24 -1.14,-2.04 -1.32,-4.92 l 2.76,0 q 0.12,1.2 0.48,2.64 0.36,1.38 1.62,2.64 1.32,1.2 3.84,2.04 2.52,0.84 7.02,0.84 6.06,0 8.64,-1.74 2.58,-1.74 2.58,-5.04 0,-2.7 -1.74,-3.96 -1.74,-1.26 -4.44,-1.62 l -10.8,-1.44 q -1.44,-0.18 -3,-0.6 -1.5,-0.48 -2.76,-1.38 -1.26,-0.9 -2.1,-2.28 -0.78,-1.38 -0.78,-3.48 0,-1.32 0.54,-2.82 0.54,-1.5 1.98,-2.82 1.44,-1.32 3.96,-2.16 2.52,-0.9 6.42,-0.9 4.26,0 6.96,0.9 2.76,0.84 4.32,2.28 1.56,1.44 2.22,3.24 0.66,1.74 0.78,3.54 l -2.76,0 z"
         id="path4170"
         inkscape:connector-curvature="0"
         style="fill:#fff8b5;fill-opacity:1" />
      <path
         d="m 382.93509,622.55124 q -0.3,-3.84 -3,-5.7 -2.64,-1.86 -8.64,-1.86 -2.82,0 -4.74,0.54 -1.92,0.48 -3.12,1.32 -1.14,0.84 -1.68,1.98 -0.48,1.08 -0.48,2.28 0,2.52 1.68,3.72 1.74,1.14 4.5,1.5 l 9.78,1.32 q 2.16,0.3 3.9,0.9 1.8,0.54 3.06,1.56 1.32,0.96 1.98,2.46 0.72,1.44 0.72,3.48 0,3.12 -1.56,4.98 -1.56,1.8 -3.84,2.76 -2.28,0.9 -4.8,1.14 -2.52,0.3 -4.5,0.3 -3.18,0 -5.88,-0.6 -2.64,-0.54 -4.62,-1.8 -1.98,-1.26 -3.18,-3.24 -1.14,-2.04 -1.32,-4.92 l 2.76,0 q 0.12,1.2 0.48,2.64 0.36,1.38 1.62,2.64 1.32,1.2 3.84,2.04 2.52,0.84 7.02,0.84 6.06,0 8.64,-1.74 2.58,-1.74 2.58,-5.04 0,-2.7 -1.74,-3.96 -1.74,-1.26 -4.44,-1.62 l -10.8,-1.44 q -1.44,-0.18 -3,-0.6 -1.5,-0.48 -2.76,-1.38 -1.26,-0.9 -2.1,-2.28 -0.78,-1.38 -0.78,-3.48 0,-1.32 0.54,-2.82 0.54,-1.5 1.98,-2.82 1.44,-1.32 3.96,-2.16 2.52,-0.9 6.42,-0.9 4.26,0 6.96,0.9 2.76,0.84 4.32,2.28 1.56,1.44 2.22,3.24 0.66,1.74 0.78,3.54 l -2.76,0 z"
         id="path4172"
         inkscape:connector-curvature="0"
         style="fill:#fff8b5;fill-opacity:1" />
      <path
         d="m 391.26165,601.43124 2.76,0 0,6.36 -2.76,0 0,-6.36 z m 0,12.12 2.76,0 0,30.72 -2.76,0 0,-30.72 z"
         id="path4174"
         inkscape:connector-curvature="0"
         style="fill:#fff8b5;fill-opacity:1" />
      <path
         d="m 417.28259,614.99124 c -2.88,0 -5.26,0.46 -7.14,1.38 -1.84,0.88 -3.3,2 -4.38,3.36 -1.08,1.36 -1.84,2.84 -2.28,4.44 -0.4,1.6 -0.6,3.08 -0.6,4.44 0,2.72 0.44,4.98 1.32,6.78 0.88,1.8 2,3.26 3.36,4.38 1.36,1.12 2.86,1.92 4.5,2.4 1.68,0.44 3.3,0.66 4.86,0.66 1.76,0 3.46,-0.28 5.1,-0.84 1.68,-0.56 3.14,-1.4 4.38,-2.52 1.28,-1.16 2.3,-2.6 3.06,-4.32 0.76,-1.72 1.14,-3.76 1.14,-6.12 0,-2.2 -0.34,-4.16 -1.02,-5.88 -0.68,-1.76 -1.62,-3.24 -2.82,-4.44 -1.16,-1.2 -2.56,-2.12 -4.2,-2.76 -1.6,-0.64 -3.36,-0.96 -5.28,-0.96 z m -16.8,-1.44 2.76,0 0,6.72 0.12,0 c 0.36,-0.92 0.9,-1.84 1.62,-2.76 0.72,-0.92 1.64,-1.74 2.76,-2.46 1.12,-0.72 2.44,-1.3 3.96,-1.74 1.52,-0.48 3.28,-0.72 5.28,-0.72 2.68,0 5.04,0.46 7.08,1.38 2.08,0.88 3.8,2.08 5.16,3.6 1.36,1.48 2.38,3.22 3.06,5.22 0.72,1.96 1.08,4.02 1.08,6.18 0,2.44 -0.42,4.66 -1.26,6.66 -0.8,2 -1.94,3.72 -3.42,5.16 -1.48,1.4 -3.22,2.5 -5.22,3.3 -2,0.76 -4.16,1.14 -6.48,1.14 -1.88,0 -3.58,-0.24 -5.1,-0.72 -1.48,-0.44 -2.78,-1.02 -3.9,-1.74 -1.12,-0.76 -2.06,-1.58 -2.82,-2.46 -0.76,-0.88 -1.36,-1.74 -1.8,-2.58 l -0.12,0 0,72.66 -2.76,0 z"
         id="path4176"
         inkscape:connector-curvature="0"
         sodipodi:nodetypes="scscssscsccsscccsccccsscscccscccsccsccccc"
         style="fill:#fff8b5;fill-opacity:1" />
      <path
         d="m 476.09353,613.55124 2.76,0 0,29.22 q 0,2.64 -0.66,5.22 -0.6,2.64 -2.4,4.74 -1.8,2.1 -5.1,3.42 -3.3,1.32 -8.64,1.32 -7.26,0 -11.22,-2.34 -3.9,-2.34 -4.68,-7.98 l 2.76,0 q 0.24,1.8 1.02,3.24 0.84,1.5 2.4,2.52 1.56,1.08 3.96,1.62 2.4,0.54 5.76,0.54 4.5,0 7.2,-1.14 2.76,-1.08 4.26,-2.82 1.56,-1.74 2.04,-3.9 0.54,-2.16 0.54,-4.32 l 0,-6.36 -0.12,0 q -2.04,3.84 -5.82,5.64 -3.72,1.74 -8.58,1.74 -4.5,0 -7.68,-1.32 -3.12,-1.32 -5.16,-3.48 -1.98,-2.22 -2.94,-5.1 -0.9,-2.88 -0.9,-5.94 0,-3 0.96,-5.76 0.96,-2.82 3,-4.98 2.04,-2.16 5.16,-3.42 3.18,-1.32 7.62,-1.32 2.04,0 4.14,0.36 2.1,0.3 3.96,1.14 1.92,0.78 3.54,2.16 1.62,1.38 2.7,3.48 l 0.12,0.06 0,-6.24 z m -14.46,1.44 q -2.7,0 -5.28,0.78 -2.52,0.78 -4.44,2.4 -1.92,1.56 -3.12,4.02 -1.14,2.46 -1.14,5.76 0,6.66 3.66,10.14 3.72,3.42 10.62,3.42 3,0 5.58,-0.78 2.58,-0.84 4.5,-2.52 1.92,-1.68 3,-4.2 1.08,-2.58 1.08,-6.12 0,-6.18 -3.84,-9.54 -3.78,-3.36 -10.62,-3.36 z"
         id="path4178"
         inkscape:connector-curvature="0"
         style="fill:#fff8b5;fill-opacity:1" />
      <path
         d="m 485.33978,601.43124 2.76,0 0,6.36 -2.76,0 0,-6.36 z m 0,12.12 2.76,0 0,30.72 -2.76,0 0,-30.72 z"
         id="path4180"
         inkscape:connector-curvature="0"
         style="fill:#fff8b5;fill-opacity:1" />
      <path
         d="m 494.56071,613.55124 2.76,0 0,7.26 0.12,0 q 1.56,-4.14 4.86,-6.18 3.36,-2.04 7.86,-2.04 0.66,0 1.14,0.12 0.48,0.06 1.14,0.24 l 0,2.76 q -0.48,-0.18 -1.2,-0.24 -0.66,-0.12 -1.98,-0.12 -3,0 -5.28,1.08 -2.22,1.02 -3.72,2.76 -1.44,1.68 -2.22,3.9 -0.72,2.22 -0.72,4.56 l 0,16.62 -2.76,0 0,-30.72 z"
         id="path4182"
         inkscape:connector-curvature="0"
         style="fill:#fff8b5;fill-opacity:1" />
      <path
         d="m 515.39446,601.43124 2.76,0 0,42.84 -2.76,0 0,-42.84 z"
         id="path4184"
         inkscape:connector-curvature="0"
         style="fill:#fff8b5;fill-opacity:1" />
    </g>
  </g>
</svg>
