<?xml version="1.0" encoding="utf-8"?>
<!-- Generator: Adobe Illustrator 24.0.0, SVG Export Plug-In . SVG Version: 6.00 Build 0)  -->
<svg version="1.1" id="Layer_1" xmlns="http://www.w3.org/2000/svg" xmlns:xlink="http://www.w3.org/1999/xlink" x="0px" y="0px"
	 viewBox="0 0 3320.5 426" style="enable-background:new 0 0 3320.5 426;" xml:space="preserve">
<g>
	<path d="M3260.6,425l-0.1-4.7c-0.5-2.2-2.7-6.9-3.9-8.3c-5.2-6.1-56.9-4.6-181-5h-64v-5c1.4,0,8.7-0.3,12.6-1.2
		c9.5-2,16.2-8.9,18.4-18.8c1.1-5.1,1.4-53.1,1.1-175.7c-0.4-162.3-0.5-168.9-2.9-173.7c-3.7-7.5-6.1-12.6-29.1-13.6v-6h27
		c32.9,1.5,42.1,2.5,75,1h27v4c-21,2-25.8,7.1-29.5,14.6c-2.4,4.9-2.5,11.6-2.9,186.7l-0.4,181.7h43.8c24.1,0,47-0.6,50.9-1.3
		c24.9-4.7,63.7-57.5,112.9-133.7l5,3l-56,157L3260.6,425z"/>
	<path d="M2968.9,406.9c-11.9-0.6-30.7-0.9-41.7-0.6s-23.6,0.5-27.9,0.6l-7.9,0.1l-47.7-92.7l-47.7-92.7l-34.1-0.4l-34.1-0.4l0.4,81
		l0.4,81l3.3,5.9c4.5,8,7.7,11.1,27.7,14.1v4l-28-0.2c-34.7-1.4-36.2-1.4-71.3,0l-28.7,0.1v-5c9,0,19.5-2.9,23.8-6.6
		c9-7.9,8.6,0.8,8.6-185.1c0-183.1,0.3-176.8-7.6-184.3c-4.5-4.2-10.7-7-24.7-8v-5l101.3,0.8c87.9,0.1,102.6,0.4,113,2.3
		c36.8,6.8,64,20.6,79.8,40.9c13.1,16.6,19.4,35.9,19.4,58.7c0,15.8-2.6,28.5-8.4,40.6c-18.6,38.8-57.9,60.4-116.5,64.1
		c-8.2,0.5-15,1.2-15,1.6c0,1.7,8.5,12.6,12.8,16.4c9.7,8.5,22.2,12,46.5,13.2l17.3,0.8l30.1,58.8c16.5,32.3,32.9,62.7,36.3,67.5
		c10.9,15.2,15.3,21.3,42.3,23.3v5L2968.9,406.9z M2823.1,212.3c32.8-5.9,49.5-27.8,54.1-71.4c3.7-35-0.6-70.3-10.9-89.6
		c-5.2-9.7-16.2-20.2-25.8-24.6c-12.9-5.9-24.1-7-70.3-7.1h-42.3v97.3v97.3h42.3C2800.6,214.2,2815.6,213.7,2823.1,212.3
		L2823.1,212.3z"/>
	<path d="M2590.4,18.9c-1.4,0-8.3,1-12,1.8c-8.6,1.8-15,7.3-18.2,15.6c-2.3,5.9-2.4,15.2-2.4,175.6v169.3l3.7,7.6
		c4.3,8.7,7.9,12.1,28.9,14.1v5h-29c-15.9-0.6-32-1.3-35.7-1.3s-19.4,0.7-35.3,1.3h-29v-5c14,0,23.8-4.9,26.8-9.6
		c6.2-9.5,6.2-8.3,6.2-182.1c0-173.4,0-172.6-6.1-182c-2.8-4.3-9.9-8.4-26.9-10.4v-5h26c33,1.2,44.3,1.2,77,0h26V18.9z"/>
	<path d="M2354.5,4.2c-3.1,14.9-12.6,16.9-47.3,10c-35.8-7.1-57.2-8.3-80.6-4.8c-76.7,11.7-135.5,69-151.8,148.1
		c-8.3,40.3-7,87.2,3.4,123.3c19.9,69.2,71.5,118.4,135.1,128.8c18.5,3,45.7,1.9,63.4-2.7c16.5-4.3,39.3-15.4,52.4-25.4l9.7-7.5
		l7.6,2.2c11.5,3.3,28.2,11.8,35.1,17.8c3.7,3.2,10.8,14.8,12.5,18.8h3l1-152c0-9,10.5-23,23-23h10v-5c-20,0-41.6,2-64,2
		c-23.2,0-45-2-66-2v5h8c9,1,17.4,6.2,21.6,14.3l3.4,6.6l0.4,55l0.4,55l-8.4,6.7c-24.7,19.6-58.4,29.7-85.5,25.6
		c-38.3-5.9-63.4-26.9-81.3-68.5c-15.1-35-22.8-94.1-19.8-150.7c3.8-70.6,18.5-114.8,47.6-143.1c17.6-17.1,37.9-24.9,64.5-24.7
		c32.4,0.2,55.6,10.7,83.1,37.5c19.4,18.9,42.9,50.9,59.6,81.2l6.3,11.3l4-3l-46-141h-4L2354.5,4.2z"/>
</g>
<g>
	<path d="M1720.2,13.8c85.9,0.1,102.2,0.4,113,2.3c34.9,5.9,61.4,18.7,78.6,37.9c7.6,8.5,17.4,27.3,20.2,39
		c2.7,11,2.4,43.8-0.6,54.7c-10.7,39.8-41.2,64.9-91.9,75.5c-9.1,1.9-21.2,2.5-67.1,3.1l-56,0.7l-0.3,72.6c-0.3,62,0,73.8,1.7,80.6
		c4,15.6,12.9,20.8,36.9,21.8l16.7-0.1v5l-38.7-0.1c-46.7-1.4-47.1-1.4-83.3,0h-30V402l8-0.2c14.6-1.7,21.5-8.3,24.4-23.6
		c0.8-4.3,1.3-67.9,1.3-169.2c0-173,0-172-6.3-180.8c-3.1-4.3-7.3-8.3-27.3-9.3v-6 M1815.2,218.3c23.8-5.9,38.9-21.3,45.1-46
		c4.2-16.8,5.2-29.6,4.5-60.4c-0.6-24.9-1.2-32.3-3.5-41.5c-5.4-21.2-15.7-35.8-30.2-42.9c-13.6-6.6-17.1-7-67.5-7.6l-47.7-0.6v99.9
		c0,54.9,0.4,100.3,1,100.9C1718.6,221.9,1807.7,220.2,1815.2,218.3z"/>
	<path d="M1578.6,18c-1.4,0-8.3,1-12,1.8c-8.6,1.8-15,7.3-18.2,15.6c-2.3,5.9-2.4,15.2-2.4,175.6v169.3l3.7,7.6
		c4.3,8.7,7.9,12.1,28.9,14.1v5h-29c-15.9-0.6-32-1.3-35.7-1.3s-19.4,0.7-35.3,1.3h-29v-5c14,0,23.8-4.9,26.8-9.6
		c6.2-9.5,6.2-8.3,6.2-182.1c0-173.4,0-172.6-6.1-182c-2.8-4.3-9.9-8.4-26.9-10.4v-5h26c33,1.2,44.3,1.2,77,0h26V18z"/>
	<path d="M1116.8,273l41,140h4c3-15,6-17.3,18.6-17.3c4.1,0,18.2,2.6,32,6c33.6,8.1,45.8,10.1,66,11c38,1.6,70.4-9.9,95.5-33.9
		c17-16.2,26.8-32.9,31.9-54.2c5.2-21.9,4.7-44-1.4-62.5c-9.3-28.1-36.7-54.8-74.6-72.9c-7.7-3.7-31.1-13-52-20.7
		c-57.6-21.4-78.4-32.9-92.2-51c-8.8-11.6-12.1-20.9-12.8-36.5c-2-41.4,27-67,75.7-66.9c33.9,0.1,61.1,12.3,88.6,39.8
		c17.8,17.8,31.9,37.3,55.7,76.2l4-2l-43-128h-5c-3,18-4,24-48.3,14.5c-30.6-6-42.7-7.3-60-6.4c-69,3.5-113.2,50.7-106.6,114
		c2.4,23.5,11.9,42.9,29.9,61c19.8,20,38,29.9,91.4,49.8c41,15.3,60.8,24.7,76.3,36.4c33.7,25.4,44.4,61.4,28.3,94.9
		c-5.7,11.9-12.8,20-24.2,27.9c-16.2,11-37.1,16.4-58.3,14.8c-41.4-3-74.5-22.1-108.4-62.7c-11.7-14-36.4-52.8-47.9-73.3L1116.8,273
		"/>
	<path d="M785.6,273l41,140h4c3-15,6-17.3,18.6-17.3c4.1,0,18.2,2.6,32,6c33.6,8.1,45.8,10.1,66,11c38,1.6,70.4-9.9,95.5-33.9
		c17-16.2,26.8-32.9,31.9-54.2c5.2-21.9,4.7-44-1.4-62.5c-9.3-28.1-36.7-54.8-74.6-72.9c-7.7-3.7-31.1-13-52-20.7
		c-57.6-21.4-78.4-32.9-92.2-51c-8.8-11.6-12.1-20.9-12.8-36.5c-2-41.4,27-67,75.7-66.9c33.9,0.1,61.1,12.3,88.6,39.8
		c17.8,17.8,31.9,37.3,55.7,76.2l4-2l-43-128h-5c-3,18-4,24-48.3,14.5c-30.6-6-42.7-7.3-60-6.4c-69,3.5-113.2,50.7-106.6,114
		c2.4,23.5,11.9,42.9,29.9,61c19.8,20,38,29.9,91.4,49.8c41,15.3,60.8,24.7,76.3,36.4c33.7,25.4,44.4,61.4,28.3,94.9
		c-5.7,11.9-12.8,20-24.2,27.9c-16.2,11-37.1,16.4-58.3,14.8c-41.4-3-74.5-22.1-108.4-62.7c-11.7-14-36.4-52.8-47.9-73.3L785.6,273"
		/>
	<path d="M541.2,411c-26.7-4.5-54.1-16.2-74.8-31.9c-61.2-46.4-89.4-132.9-71.8-220.2C410,83.6,462.4,27.2,531.9,11.5
		c16.6-3.7,44-4.6,61.3-2c78.7,12.1,135.3,72.4,150.9,160.8c1.1,6.5,1.7,21,1.7,41.3c-0.1,28.8-0.4,32.7-3.6,48.1
		c-17.8,83.6-75.1,141.2-150.9,151.8C578,413.4,553.9,413.1,541.2,411L541.2,411z M592.1,404.3c44.4-11.5,69.7-52.2,80.7-129.9
		c3-21.1,3.4-103.7,0.7-124c-5.1-37-12.1-62.5-23.1-84c-18.1-35.5-44.7-52.4-82.5-52.5c-59.4-0.1-93.4,44.5-104.9,137.7
		c-3.2,25.6-3.2,90.9,0,116.7c9.2,75.3,32.1,117.6,71.9,133C551.7,407.7,574.3,408.9,592.1,404.3L592.1,404.3z"/>
	<path d="M285.2,4.3c-3.1,14.9-12.6,16.9-47.3,10c-35.8-7.1-57.2-8.3-80.6-4.8C80.5,21.2,21.8,78.6,5.4,157.7
		c-8.3,40.3-7,87.2,3.4,123.3c19.9,69.2,71.5,118.4,135.1,128.8c18.5,3,45.7,1.9,63.4-2.7c16.5-4.3,39.3-15.4,52.4-25.4l9.7-7.5
		l7.6,2.2c11.5,3.3,28.2,11.8,35.1,17.8c3.7,3.2,10.8,14.8,12.5,18.8h3l1-152c0-9,10.5-23,23-23h10v-5c-20,0-41.6,2-64,2
		c-23.2,0-45-2-66-2v5h8c9,1,17.4,6.2,21.6,14.3l3.4,6.6l0.4,55l0.4,55l-8.4,6.7c-24.7,19.6-58.4,29.7-85.5,25.6
		c-38.3-5.9-63.4-26.9-81.3-68.5c-15.1-35-22.8-94.1-19.8-150.7C74.3,111.2,89,67,118.1,38.7C135.7,21.6,156,13.8,182.6,14
		c32.4,0.2,55.6,10.7,83.1,37.5c19.4,18.9,42.9,50.9,59.6,81.2l6.3,11.3l4-3l-46-141h-4L285.2,4.3z"/>
</g>
</svg>
